<?xml version="1.0" encoding="utf-8"?><!-- Uploaded to: SVG Repo, www.svgrepo.com, Generator: SVG Repo Mixer Tools -->
<svg width="800px" height="800px" viewBox="0 0 400 400" fill="none" xmlns="http://www.w3.org/2000/svg">
<path d="M185.603 170.214C179.737 174.478 152.254 195.799 153.271 201.916C154.086 206.822 238.934 286.15 263.164 272.638C299.886 252.159 247.842 213.496 232.075 199.726C223.309 192.071 208.386 177.991 198.471 171.372" stroke="#000000" stroke-opacity="0.9" stroke-width="16" stroke-linecap="round" stroke-linejoin="round"/>
<path d="M246.255 181.787C243.109 177.118 215.114 155.546 215.722 151.917C217.763 139.664 296.432 63.4263 301.218 65.0248C306.236 66.6998 347.446 92.5778 343.967 96.9296C332.745 110.964 314.592 123.647 301.218 135.811C285.997 149.655 275.314 160.955 257.049 176.25" stroke="#000000" stroke-opacity="0.9" stroke-width="16" stroke-linecap="round" stroke-linejoin="round"/>
<path d="M143.441 226.923C148.799 229.664 179.312 251.293 178.667 252.923C176.74 257.787 140.342 287.525 133.958 293.973C129.013 298.968 95.2596 334.827 92.6342 335.709C91.4817 336.099 54.4028 298.936 56.0535 296.027C59.0315 290.78 117.087 243.858 133.958 229.66" stroke="#000000" stroke-opacity="0.9" stroke-width="16" stroke-linecap="round" stroke-linejoin="round"/>
<path d="M153.295 241.969C129.571 260.486 98.8212 297.523 77.9893 312.566" stroke="#000000" stroke-opacity="0.9" stroke-width="16" stroke-linecap="round" stroke-linejoin="round"/>
<path d="M315.241 83.4146C290.377 112.968 263.414 140.918 236.543 167.9" stroke="#000000" stroke-opacity="0.9" stroke-width="16" stroke-linecap="round" stroke-linejoin="round"/>
<path d="M310.612 118.134C299.179 109.36 285.187 102.478 275.893 91.5156" stroke="#000000" stroke-opacity="0.9" stroke-width="16" stroke-linecap="round" stroke-linejoin="round"/>
<path d="M288.623 141.281C280.107 130.308 270.196 121.235 262.005 110.033" stroke="#000000" stroke-opacity="0.9" stroke-width="16" stroke-linecap="round" stroke-linejoin="round"/>
<path d="M265.475 160.956C257.435 151.176 248.129 140.991 241.245 130.234" stroke="#000000" stroke-opacity="0.9" stroke-width="16" stroke-linecap="round" stroke-linejoin="round"/>
<path d="M149.743 268.587C142.085 259.479 132.22 251.685 125.439 241.969" stroke="#000000" stroke-opacity="0.9" stroke-width="16" stroke-linecap="round" stroke-linejoin="round"/>
<path d="M131.713 290.78C123.654 280.801 116.103 268.526 109.237 258.171" stroke="#000000" stroke-opacity="0.9" stroke-width="16" stroke-linecap="round" stroke-linejoin="round"/>
<path d="M111.552 312.566C100.561 299.162 93.0894 289.957 86.0908 279.003" stroke="#000000" stroke-opacity="0.9" stroke-width="16" stroke-linecap="round" stroke-linejoin="round"/>
<path d="M158.1 121.606C151.368 127.221 144.207 132.438 137.742 138.373C131.599 144.01 109.237 161.737 109.237 165.201C109.237 170.823 114.865 175.391 118.738 177.944C147.916 197.163 187.347 156.81 169.639 127.644" stroke="#000000" stroke-opacity="0.9" stroke-width="16" stroke-linecap="round" stroke-linejoin="round"/>
<path d="M135.856 126.143C125.071 115.299 119.01 133.328 126.343 141.281" stroke="#000000" stroke-opacity="0.9" stroke-width="16" stroke-linecap="round" stroke-linejoin="round"/>
</svg>